<svg style="display:none;" xmlns="http://www.w3.org/2000/svg">
 <symbol id="type-pause" viewBox="0 0 24 24">
  <path d="M6 3H8V21H6V3ZM16 3H18V21H16V3Z" fill="currentColor"/>
 </symbol>
 <symbol id="type-play" viewBox="0 0 24 24">
  <path d="M6 20.1957V3.80421C6 3.01878 6.86395 2.53993 7.53 2.95621L20.6432 11.152C21.2699 11.5436 21.2699 12.4563 20.6432 12.848L7.53 21.0437C6.86395 21.46 6 20.9812 6 20.1957Z" fill="currentColor"/>
 </symbol>
 <symbol id="check" viewBox="0 0 24 24">
  <path d="M11.0024 16.0001L6.75977 11.7575L8.17399 10.3432L11.0024 13.1717L16.6593 7.51477L18.0735 8.92898L11.0024 16.0001Z" fill="currentColor"/>
 </symbol>
 <symbol id="info" viewBox="0 0 24 24">
  <path d="M12 22C6.47715 22 2 17.5228 2 12C2 6.47715 6.47715 2 12 2C17.5228 2 22 6.47715 22 12C22 17.5228 17.5228 22 12 22ZM12 20C16.4183 20 20 16.4183 20 12C20 7.58172 16.4183 4 12 4C7.58172 4 4 7.58172 4 12C4 16.4183 7.58172 20 12 20ZM11 7H13V9H11V7ZM11 11H13V17H11V11Z" fill="currentColor"/>
 </symbol>
 <symbol id="send" viewBox="0 0 24 24">
  <path d="M1.9468 10.3153C1.42426 10.1411 1.42013 9.8601 1.95755 9.68096L21.0437 3.31889C21.5722 3.14273 21.8753 3.43854 21.7272 3.95682L16.274 23.0431C16.123 23.5715 15.8184 23.5899 15.5951 23.0875L12.0006 14.9999L18.0006 6.99993L10.0007 12.9999L1.9468 10.3153Z" fill="currentColor"/>
 </symbol>
 <symbol id="genres" viewBox="0 0 24 24">
  <path d="M7 11.5C4.51472 11.5 2.5 9.48528 2.5 7C2.5 4.51472 4.51472 2.5 7 2.5C9.48528 2.5 11.5 4.51472 11.5 7C11.5 9.48528 9.48528 11.5 7 11.5ZM7 21.5C4.51472 21.5 2.5 19.4853 2.5 17C2.5 14.5147 4.51472 12.5 7 12.5C9.48528 12.5 11.5 14.5147 11.5 17C11.5 19.4853 9.48528 21.5 7 21.5ZM17 11.5C14.5147 11.5 12.5 9.48528 12.5 7C12.5 4.51472 14.5147 2.5 17 2.5C19.4853 2.5 21.5 4.51472 21.5 7C21.5 9.48528 19.4853 11.5 17 11.5ZM17 21.5C14.5147 21.5 12.5 19.4853 12.5 17C12.5 14.5147 14.5147 12.5 17 12.5C19.4853 12.5 21.5 14.5147 21.5 17C21.5 19.4853 19.4853 21.5 17 21.5ZM7 9.5C8.38071 9.5 9.5 8.38071 9.5 7C9.5 5.61929 8.38071 4.5 7 4.5C5.61929 4.5 4.5 5.61929 4.5 7C4.5 8.38071 5.61929 9.5 7 9.5ZM7 19.5C8.38071 19.5 9.5 18.3807 9.5 17C9.5 15.6193 8.38071 14.5 7 14.5C5.61929 14.5 4.5 15.6193 4.5 17C4.5 18.3807 5.61929 19.5 7 19.5ZM17 9.5C18.3807 9.5 19.5 8.38071 19.5 7C19.5 5.61929 18.3807 4.5 17 4.5C15.6193 4.5 14.5 5.61929 14.5 7C14.5 8.38071 15.6193 9.5 17 9.5ZM17 19.5C18.3807 19.5 19.5 18.3807 19.5 17C19.5 15.6193 18.3807 14.5 17 14.5C15.6193 14.5 14.5 15.6193 14.5 17C14.5 18.3807 15.6193 19.5 17 19.5Z" fill="currentColor"/>
 </symbol>
 <symbol id="burger" viewBox="0 0 24 24">
  <path d="M3 4.99988H21V6.74988H3V4.99988ZM3 11.1249H21V12.8749H3V11.1249ZM3 17.2499H21V18.9999H3V17.2499Z" fill="currentColor"/>
 </symbol>
 <symbol id="star" viewBox="0 0 16 16">
  <path d="M8.00105 12.1734L3.29875 14.8055L4.34897 9.51997L0.392578 5.86124L5.74394 5.22675L8.00105 0.333374L10.2581 5.22675L15.6095 5.86124L11.6531 9.51997L12.7033 14.8055L8.00105 12.1734Z" fill="currentColor"/>
 </symbol>
 <symbol id="phone" viewBox="0 0 24 24">
  <path d="M9.36556 10.6821C10.302 12.3288 11.6712 13.698 13.3179 14.6344L14.2024 13.3961C14.4965 12.9845 15.0516 12.8573 15.4956 13.0998C16.9024 13.8683 18.4571 14.3353 20.0789 14.4637C20.599 14.5049 21 14.9389 21 15.4606V19.9234C21 20.4361 20.6122 20.8657 20.1022 20.9181C19.5723 20.9726 19.0377 21 18.5 21C9.93959 21 3 14.0604 3 5.5C3 4.96227 3.02742 4.42771 3.08189 3.89776C3.1343 3.38775 3.56394 3 4.07665 3H8.53942C9.0611 3 9.49513 3.40104 9.5363 3.92109C9.66467 5.54288 10.1317 7.09764 10.9002 8.50444C11.1427 8.9484 11.0155 9.50354 10.6039 9.79757L9.36556 10.6821ZM6.84425 10.0252L8.7442 8.66809C8.20547 7.50514 7.83628 6.27183 7.64727 5H5.00907C5.00303 5.16632 5 5.333 5 5.5C5 12.9558 11.0442 19 18.5 19C18.667 19 18.8337 18.997 19 18.9909V16.3527C17.7282 16.1637 16.4949 15.7945 15.3319 15.2558L13.9748 17.1558C13.4258 16.9425 12.8956 16.6915 12.3874 16.4061L12.3293 16.373C10.3697 15.2587 8.74134 13.6303 7.627 11.6707L7.59394 11.6126C7.30849 11.1044 7.05754 10.5742 6.84425 10.0252Z" fill="currentColor"/>
 </symbol>
 <symbol id="filled-true" viewBox="0 0 24 24">
  <path d="M4 22C4 17.5817 7.58172 14 12 14C16.4183 14 20 17.5817 20 22H4ZM12 13C8.685 13 6 10.315 6 7C6 3.685 8.685 1 12 1C15.315 1 18 3.685 18 7C18 10.315 15.315 13 12 13Z" fill="currentColor"/>
 </symbol>
 <symbol id="size-large" viewBox="0 0 24 24">
  <path d="M10.5859 12L2.79297 4.20706L4.20718 2.79285L12.0001 10.5857L19.793 2.79285L21.2072 4.20706L13.4143 12L21.2072 19.7928L19.793 21.2071L12.0001 13.4142L4.20718 21.2071L2.79297 19.7928L10.5859 12Z" fill="currentColor"/>
 </symbol>
 <symbol id="copyright" viewBox="0 0 24 24">
  <path d="M16.2877 9.42773C15.413 7.97351 13.8195 7 12 7C9.23999 7 7 9.23999 7 12C7 14.76 9.23999 17 12 17C13.8195 17 15.413 16.0265 16.2877 14.5723L14.5729 13.5442C14.0483 14.4166 13.0927 15 12 15C10.3425 15 9 13.6575 9 12C9 10.3425 10.3425 9 12 9C13.093 9 14.0491 9.58386 14.5735 10.4568L16.2877 9.42773ZM22 12C22 6.47998 17.52 2 12 2C6.47998 2 2 6.47998 2 12C2 17.52 6.47998 22 12 22C17.52 22 22 17.52 22 12ZM4 12C4 7.57996 7.57996 4 12 4C16.42 4 20 7.57996 20 12C20 16.42 16.42 20 12 20C7.57996 20 4 16.42 4 12Z" fill="currentColor"/>
 </symbol>
 <symbol id="mail" viewBox="0 0 24 24">
  <path d="M21 3C21.5523 3 22 3.44772 22 4V20.0066C22 20.5552 21.5447 21 21.0082 21H2.9918C2.44405 21 2 20.5551 2 20.0066V19H20V7.3L12 14.5L2 5.5V4C2 3.44772 2.44772 3 3 3H21ZM8 15V17H0V15H8ZM5 10V12H0V10H5ZM19.5659 5H4.43414L12 11.8093L19.5659 5Z" fill="currentColor"/>
 </symbol>
 <symbol id="size-small" viewBox="0 0 24 24">
  <path d="M11.9987 10.5865L16.9485 5.63672L18.3627 7.05093L13.4129 12.0007L18.3627 16.9504L16.9485 18.3646L11.9987 13.4149L7.04899 18.3646L5.63477 16.9504L10.5845 12.0007L5.63477 7.05093L7.04899 5.63672L11.9987 10.5865Z" fill="currentColor"/>
 </symbol>
 <symbol id="filled-false" viewBox="0 0 24 24">
  <path d="M4 22C4 17.5817 7.58172 14 12 14C16.4183 14 20 17.5817 20 22H18C18 18.6863 15.3137 16 12 16C8.68629 16 6 18.6863 6 22H4ZM12 13C8.685 13 6 10.315 6 7C6 3.685 8.685 1 12 1C15.315 1 18 3.685 18 7C18 10.315 15.315 13 12 13ZM12 11C14.21 11 16 9.21 16 7C16 4.79 14.21 3 12 3C9.79 3 8 4.79 8 7C8 9.21 9.79 11 12 11Z" fill="currentColor"/>
 </symbol>
 <symbol id="reload" viewBox="0 0 24 24">
  <path d="M12 4C14.7486 4 17.1749 5.38626 18.6156 7.5H16V9.5H22V3.5H20V5.99936C18.1762 3.57166 15.2724 2 12 2C6.47715 2 2 6.47715 2 12H4C4 7.58172 7.58172 4 12 4ZM20 12C20 16.4183 16.4183 20 12 20C9.25144 20 6.82508 18.6137 5.38443 16.5H8V14.5H2V20.5H4V18.0006C5.82381 20.4283 8.72764 22 12 22C17.5228 22 22 17.5228 22 12H20Z" fill="currentColor"/>
</symbol>
<symbol id="heart" viewBox="0 0 24 24">
  <path d="M16.5 3C19.5376 3 22 5.5 22 9C22 16 14.5 20 12 21.5C9.5 20 2 16 2 9C2 5.5 4.5 3 7.5 3C9.35997 3 11 4 12 5C13 4 14.64 3 16.5 3ZM12.9339 18.6038C13.8155 18.0485 14.61 17.4955 15.3549 16.9029C18.3337 14.533 20 11.9435 20 9C20 6.64076 18.463 5 16.5 5C15.4241 5 14.2593 5.56911 13.4142 6.41421L12 7.82843L10.5858 6.41421C9.74068 5.56911 8.5759 5 7.5 5C5.55906 5 4 6.6565 4 9C4 11.9435 5.66627 14.533 8.64514 16.9029C9.39 17.4955 10.1845 18.0485 11.0661 18.6038C11.3646 18.7919 11.6611 18.9729 12 19.1752C12.3389 18.9729 12.6354 18.7919 12.9339 18.6038Z" fill="currentColor"/>
</symbol>
<symbol id="vk" viewBox="0 0 36 36">
  <path fill-rule="evenodd" clip-rule="evenodd" d="M26.4875 14.3797C26.6262 13.9851 26.4875 13.6981 25.8729 13.6981H23.8308C23.3153 13.6981 23.0774 13.9492 22.9387 14.2183C22.9387 14.2183 21.8879 16.5141 20.4207 18.0027C19.9449 18.4332 19.7268 18.5767 19.4691 18.5767C19.3303 18.5767 19.1519 18.4332 19.1519 18.0386V14.3617C19.1519 13.8954 18.9933 13.6802 18.5571 13.6802H15.3453C15.0281 13.6802 14.8299 13.8954 14.8299 14.1106C14.8299 14.5591 15.5634 14.6667 15.6427 15.9222V18.6484C15.6427 19.2403 15.5238 19.3479 15.266 19.3479C14.5721 19.3479 12.8869 17.0342 11.8758 14.3976C11.6775 13.8775 11.4793 13.6802 10.9638 13.6802H8.90191C8.30714 13.6802 8.20801 13.9313 8.20801 14.2003C8.20801 14.6846 8.90191 17.1239 11.4396 20.3524C13.1249 22.5585 15.5238 23.7422 17.6848 23.7422C18.9933 23.7422 19.1519 23.4732 19.1519 23.0248V21.3568C19.1519 20.8187 19.2708 20.729 19.6872 20.729C19.9846 20.729 20.5199 20.8725 21.7292 21.9307C23.117 23.1862 23.355 23.7602 24.1282 23.7602H26.1703C26.765 23.7602 27.0426 23.4911 26.884 22.971C26.7056 22.4509 26.0315 21.6976 25.1591 20.8007C24.6833 20.2986 23.9696 19.7426 23.7515 19.4735C23.4541 19.1148 23.5334 18.9713 23.7515 18.6484C23.7317 18.6484 26.2297 15.4559 26.4875 14.3797Z" fill="currentColor" fill-opacity="0.8"/>
</symbol>
<symbol id="ok" viewBox="0 0 36 36">
  <path d="M19.919 22.2623L22.5725 24.8239C23.116 25.3475 23.116 26.1979 22.5725 26.7221C22.0294 27.2462 21.1493 27.2462 20.6069 26.7221L17.998 24.2049L15.3914 26.7221C15.1196 26.9839 14.7635 27.1149 14.4074 27.1149C14.0518 27.1149 13.6962 26.9839 13.4244 26.7221C12.8814 26.1979 12.8814 25.348 13.4238 24.8239L16.0776 22.2623C15.1114 22.0498 14.1796 21.6802 13.3213 21.1605C12.6718 20.7651 12.4767 19.937 12.8859 19.3094C13.2941 18.6811 14.1523 18.4919 14.803 18.8872C16.7461 20.0672 19.2493 20.0674 21.1936 18.8872C21.8443 18.4919 22.7023 18.6811 23.1112 19.3094C23.5205 19.9364 23.3248 20.7651 22.6753 21.1605C21.817 21.6808 20.8852 22.0498 19.919 22.2623Z" fill="currentColor" fill-opacity="0.8"/>
  <path fill-rule="evenodd" clip-rule="evenodd" d="M13.2402 13.942C13.2402 16.468 15.3691 18.5227 17.9868 18.5227C20.605 18.5227 22.7333 16.468 22.7333 13.942C22.7333 11.4152 20.605 9.35991 17.9868 9.35991C15.3691 9.35991 13.2402 11.4152 13.2402 13.942ZM19.952 13.9415C19.952 12.8954 19.0705 12.0447 17.9867 12.0447C16.9038 12.0447 16.0214 12.8954 16.0214 13.9415C16.0214 14.9868 16.9038 15.838 17.9867 15.838C19.0705 15.838 19.952 14.9868 19.952 13.9415Z" fill="currentColor" fill-opacity="0.8"/>
</symbol>
<symbol id="youtube" viewBox="0 0 36 36">
  <path fill-rule="evenodd" clip-rule="evenodd" d="M24.0008 13.0496C24.6617 13.2309 25.1822 13.7653 25.3588 14.4439C25.6798 15.6738 25.6798 18.24 25.6798 18.24C25.6798 18.24 25.6798 20.8061 25.3588 22.036C25.1822 22.7146 24.6617 23.249 24.0008 23.4305C22.8031 23.76 17.9998 23.76 17.9998 23.76C17.9998 23.76 13.1966 23.76 11.9988 23.4305C11.3379 23.249 10.8174 22.7146 10.6407 22.036C10.3198 20.8061 10.3198 18.24 10.3198 18.24C10.3198 18.24 10.3198 15.6738 10.6407 14.4439C10.8174 13.7653 11.3379 13.2309 11.9988 13.0496C13.1966 12.72 17.9998 12.72 17.9998 12.72C17.9998 12.72 22.8031 12.72 24.0008 13.0496ZM16.5598 16.0802V20.8802L20.3998 18.4803L16.5598 16.0802Z" fill="currentColor" fill-opacity="0.8"/>
</symbol>
<symbol id="telegram" viewBox="0 0 36 36">
  <path d="M8.60057 17.8588C10.2839 16.9316 12.163 16.1577 13.9187 15.3799C16.9392 14.1058 19.9718 12.8539 23.0349 11.6883C23.6309 11.4897 24.7017 11.2955 24.8067 12.1787C24.7492 13.4288 24.5127 14.6717 24.3504 15.9145C23.9387 18.6476 23.4627 21.3714 22.9986 24.0955C22.8387 25.0029 21.702 25.4726 20.9747 24.892C19.2268 23.7113 17.4654 22.5421 15.7398 21.3341C15.1746 20.7597 15.6987 19.9349 16.2036 19.5247C17.6432 18.106 19.17 16.9006 20.5344 15.4085C20.9024 14.5197 19.815 15.2687 19.4563 15.4982C17.4854 16.8564 15.5628 18.2975 13.4849 19.4911C12.4235 20.0754 11.1864 19.5761 10.1255 19.25C9.17421 18.8562 7.78028 18.4594 8.60048 17.8589L8.60057 17.8588Z" fill="currentColor" fill-opacity="0.8"/>
</symbol>
<symbol id="arrow" viewBox="0 0 40 40">
  <path d="M18.047 20.0012L26.2967 28.2507L23.9397 30.6077L13.333 20.0012L23.9397 9.39453L26.2967 11.7515L18.047 20.0012Z" fill="currentColor"/>
</symbol>
<symbol id="search" viewBox="0 0 24 24">
  <path d="M18.3591 16.6168L22.6418 20.8995L21.2276 22.3137L16.9449 18.031C15.405 19.263 13.4521 20 11.3281 20C6.36013 20 2.32812 15.968 2.32812 11C2.32812 6.032 6.36013 2 11.3281 2C16.2961 2 20.3281 6.032 20.3281 11C20.3281 13.124 19.5911 15.0769 18.3591 16.6168ZM16.3528 15.8748C17.5756 14.6146 18.3281 12.8956 18.3281 11C18.3281 7.1325 15.1956 4 11.3281 4C7.46062 4 4.32812 7.1325 4.32812 11C4.32812 14.8675 7.46062 18 11.3281 18C13.2237 18 14.9427 17.2475 16.2029 16.0247L16.3528 15.8748Z" fill="currentColor" fill-opacity="0.5"/>
</symbol>
<symbol id="key" viewBox="0 0 24 24">
  <path d="M12.917 13C12.441 15.8377 9.973 18 7 18C3.68629 18 1 15.3137 1 12C1 8.68629 3.68629 6 7 6C9.973 6 12.441 8.16229 12.917 11H23V13H21V17H19V13H17V17H15V13H12.917ZM7 16C9.20914 16 11 14.2091 11 12C11 9.79086 9.20914 8 7 8C4.79086 8 3 9.79086 3 12C3 14.2091 4.79086 16 7 16Z" fill="currentColor"/>
</symbol>
<symbol id="heart-filled" viewBox="0 0 24 24">
  <path d="M16.5 3C19.5376 3 22 5.5 22 9C22 16 14.5 20 12 21.5C9.5 20 2 16 2 9C2 5.5 4.5 3 7.5 3C9.35997 3 11 4 12 5C13 4 14.64 3 16.5 3Z" fill="#B4A9FF"/>
</symbol>
<symbol id="search-filled" viewBox="0 0 24 24">
  <path d="M18.031 16.6168L22.3137 20.8995L20.8995 22.3137L16.6168 18.031C15.0769 19.263 13.124 20 11 20C6.032 20 2 15.968 2 11C2 6.032 6.032 2 11 2C15.968 2 20 6.032 20 11C20 13.124 19.263 15.0769 18.031 16.6168ZM16.0247 15.8748C17.2475 14.6146 18 12.8956 18 11C18 7.1325 14.8675 4 11 4C7.1325 4 4 7.1325 4 11C4 14.8675 7.1325 18 11 18C12.8956 18 14.6146 17.2475 15.8748 16.0247L16.0247 15.8748Z" fill="currentColor"/>
</symbol>
</svg>
