<svg width="36" height="36" viewBox="0 0 36 36" fill="none" xmlns="http://www.w3.org/2000/svg">
<rect x="0.5" y="0.5" width="35" height="35" rx="7.5" stroke="white" stroke-opacity="0.8"/>
<path fill-rule="evenodd" clip-rule="evenodd" d="M24.0008 13.0496C24.6617 13.2309 25.1822 13.7653 25.3588 14.4439C25.6798 15.6738 25.6798 18.24 25.6798 18.24C25.6798 18.24 25.6798 20.8061 25.3588 22.036C25.1822 22.7146 24.6617 23.249 24.0008 23.4305C22.8031 23.76 17.9998 23.76 17.9998 23.76C17.9998 23.76 13.1966 23.76 11.9988 23.4305C11.3379 23.249 10.8174 22.7146 10.6407 22.036C10.3198 20.8061 10.3198 18.24 10.3198 18.24C10.3198 18.24 10.3198 15.6738 10.6407 14.4439C10.8174 13.7653 11.3379 13.2309 11.9988 13.0496C13.1966 12.72 17.9998 12.72 17.9998 12.72C17.9998 12.72 22.8031 12.72 24.0008 13.0496ZM16.5598 16.0802V20.8802L20.3998 18.4803L16.5598 16.0802Z" fill="white" fill-opacity="0.8"/>
</svg>
